<svg viewBox="0 0 583.47 197.68" xmlns="http://www.w3.org/2000/svg"><path d="m110.66 147.39c-1.41 4.56-2.75 8.88-4.08 13.21l-1.56-.13c.21-2.42-.06-5 .75-7.22 1.62-4.45.64-6.95-3.88-8.87-3-1.27-5.38-3.95-8.45-6.32a14 14 0 0 1 -14.06 9c-5.92-.49-11.61-3.79-17.68-6 .31-.38 0-.18-.07.1-4.61 12.43-6 12.24-18.11 6.74-3.24-1.46-6-4-9.65-6.61-1.89 8-5.28 15.1-11.54 20.53s-13.78 6.91-21.64 7l-.69-1.35a25.36 25.36 0 0 1 3.13-2.08c10.89-5.2 20-12.55 26.08-23 1.82-3.11 3.27-7.14 3-10.61-.72-9.48 4.13-16.14 9.87-22.47 2.75-3 6-4.1 9.11.08 4.43 6 8.56 12.25 13.66 17.6 10.77 11.34 19.92 10 29.21-.95 1.26-1.49 2.58-2.94 4-4.5 1.81 3.4 3 6.93 5.27 9.43 1.76 1.93 6.68 4.08 7.17 3.52 2.18-2.55 4.73-6.11 4.54-9.14-.67-10.71-2.37-21.36-3.77-32q-2.27-17.24-4.73-34.42a10.67 10.67 0 0 0 -1.54-4.06c-5.91-9.29-5.17-16.26 3.75-25.57-3.04 9.7 3.56 13.7 8.44 18.59a7.11 7.11 0 0 1 1.91 4.2c.26 4.11.09 8.25.09 13.32l-6.7-6c2.59 21.09 5.09 41.43 7.66 62.31 1.16-1.34 2.3-2.62 3.4-3.93a65.56 65.56 0 0 1 28.14-19.79c8.34-3 14.54-1.45 18 3.58 5.57 8.13 5.59 15-.34 22.42-2.94 3.68-6.36 7-10.13 11.1 11.33-1.22 22-2.28 32.84-9.09l-15.12-9.22c1.48-5.56 3.94-11.6 10.45-13.25a49.06 49.06 0 0 1 19-1.31c9.6 1.49 12.31 11.71 5.66 19a37 37 0 0 1 -5.17 4.09c6.18 12.45 26.42 12.07 31.92 4.37a15.21 15.21 0 0 0 2.3-9.71c-1.51-14-3.63-27.83-5.51-41.74-1.1-8.19-2.13-16.38-3.24-24.57a8.2 8.2 0 0 0 -.91-3.24c-6.95-10.79-6.44-16.23 3.16-26.62-2.31 9.17 3 13.92 8.2 18.9a8.63 8.63 0 0 1 2.2 5.09c.32 3.73.09 7.51.09 12.26l-5.86-4.32c.37 3.84.55 6.94 1 10 1.89 13.4 4.37 26.74 5.6 40.2.88 9.52.71 19.17-3.33 28.38-4.57 10.42-15.13 15.66-26.07 12.27-7.32-2.26-8-2.71-19.32-13.86a47.46 47.46 0 0 1 -27.94 13.21 145.51 145.51 0 0 1 -15.84 1.38c-14.22.2-28.33.07-42.67.07zm5.61-12.91c13.19 1.82 33.34-3 45.12-11 1.92-1.31 4.56-4.31 4.14-5.71-.65-2.16-3.38-4.57-5.69-5.24-17.84-5.21-35.03 6.73-43.57 21.95zm-59.3.71c-.88-2.65-1.17-5.29-2.52-7.18-1.91-2.68-4.24-5.9-7.06-6.8-1.91-.61-5.19 2.13-7.34 4-.48.41.73 3.82 2 5 3.95 3.85 9.01 5.03 14.95 4.98z"/><path d="m404.18 126.77c-2.6 2.09-4.77 4.12-7.22 5.75-4.51 3-9.36 3.41-14.15.72-4.42-2.49-5.29-6.6-5.39-11.46-.17-7.78 2.23-14.66 5.84-21.31 4.28-7.89 12.85-8.42 17.77-1 10.06 15.17 12 31.69 7.21 48.94-1.58 5.73-5.94 9.77-11.24 12.78-12 6.83-25.35 9.8-38.7 11.57a702.45 702.45 0 0 1 -114.3 5.33c-13.94-.45-27.88-1.09-41.76-2.37-25.68-2.35-51.09-6.31-75.3-15.76a77.84 77.84 0 0 1 -10.19-5.05c-.8-.45-1-1.95-1.49-3 1.09-.24 2.26-.86 3.27-.67 12.29 2.33 24.51 5 36.85 7.09 10.27 1.7 20.63 3.34 31 3.75 33.73 1.34 67.48 2.92 101.22 2.81 21.66-.07 43.32-2.95 65-4.56a136.74 136.74 0 0 0 45.4-11.22c11-4.87 12.78-11.71 6.18-22.34zm-8.18-11.91c-5.22-5.83-8.39-7.21-11-4.4a6.17 6.17 0 0 0 -1 5.54c1.38 2.9 7.65 2.18 12-1.14z"/><path d="m460 73.24c2.45 16.46 4.75 33 7.49 49.36a29.49 29.49 0 0 0 4.29 10.4c4.88 7.79 13.76 8.54 20.24 2 3.13-3.16 6.13-6.44 9.54-10 .64 2.15 1.12 4.13 1.83 6 2.41 6.4 12.59 11 18.83 8.34a7.1 7.1 0 0 0 3-3.13 81.41 81.41 0 0 1 23-27.14c6.51-4.86 13.66-8.19 21.94-8.33 6.87-.13 12 3.9 13 10.6 1.59 10.54-1.88 19.24-10.41 25.76-12.41 9.47-26.66 13.55-42.07 14.23-2.49.11-5.11 0-7.41.78a9.56 9.56 0 0 0 -5 3.74c-2 3.38-3.27 7.18-4.88 10.88-3-2.57-3-2.56-.81-6.91 1.2-2.35 2.34-4.73 3.73-7.57-8-1-15.07-3-18.45-11.31-2 2.26-3.73 4.44-5.69 6.39-6.83 6.81-17.45 6-22.75-2.09-3.14-4.79-5.36-10.18-8.05-15.43-1.83 2.6-3.88 5.6-6 8.54-5.25 7.24-13 9.39-21.29 9.91a48.94 48.94 0 0 1 -12.77-1c-4.15-.85-5.95-4.43-5.57-8.35.41-4.22 1.7-8.37 2.75-12.52.2-.79 1.09-1.4 1.66-2.1.65.63 1.61 1.14 1.89 1.9 3.44 9.29 5 10.54 15.89 10.35 6.83-.12 13.89-.59 18.34-6.9 1.61-2.28 3.22-5.36 3-7.95-.69-9.69-2-19.35-3.33-29-.89-6.36-1.22-12.52 2.23-18.31a9.15 9.15 0 0 0 .66-2.32zm68.9 66.56c4.41-.33 8.82-.54 13.21-1 12.06-1.26 23.26-5 33.13-12.16 5-3.65 4.92-8.21-1-10.26-4.87-1.7-10.88-2.4-15.82-1.22-13.27 3.18-21.67 13.33-29.56 24.64z"/><path d="m344.36 73.27c2.95 14.46 6.28 28.86 8.66 43.42 1.05 6.4.65 13.17 0 19.69-.51 5-2.84 9.73-8.62 10.92s-10.39-1.39-13.85-7.47c-1.22-2.14-2.31-4.35-3.94-7.44-3 9-5.32 18.17-16.13 18.64-6.12.26-9.29-3.68-15.21-16.69a32.82 32.82 0 0 1 -2 4.27c-5.26 7.44-12.93 6.68-20.32 5.28-5.76-1.1-7.19-4.58-4.85-10 4.47-10.41 10.57-19.49 20.75-25.32 1.46-.84 2.42-3.09 2.95-4.88.91-3.09 1.31-6.33 1.92-9.51h1.57c1.7 8.86 3.28 17.75 5.18 26.57a34.91 34.91 0 0 0 3.5 10.2c2.59 4.47 8.67 5.86 13.25 3.79 5-2.25 8.12-8.73 6.86-14.21-2.18-9.44-4.84-18.81-6.42-28.35-1-5.89-1.72-12.26 3.09-18.78 1.21 6.19 2 11.53 3.31 16.74 3 11.81 5.71 23.76 9.8 35.2 1.2 3.36 6.34 5.91 10.21 7.52 3.36 1.4 6.33-2.4 5.5-6.45-2.69-13.08-5.76-26.09-8.11-39.23-.81-4.49.09-9.29.21-14zm-52 40.55c-7 3.24-11.86 7.59-15 15.41 4.74.69 8.71 1.74 12.68 1.71 3.69 0 5.63-2.31 4.58-6.39-.86-3.29-1.43-6.66-2.28-10.73z"/><path d="m259.27 29.89c1.11 9.5 2.17 18 3.09 26.52 1.1 10.17 1.75 20.41 3.19 30.53 2 13.88.24 27.31-4.45 41-.47-1.25-1.3-2.47-1.35-3.73-.36-9.53-.25-19.08-.9-28.59-.68-10-2.08-20-3.08-30-.41-4.1-.2-8.29-1-12.31-1.5-7.98.09-15.21 4.5-23.42z"/><path d="m362.24 34.45q2.24 24.36 4.46 48.72c.74 8.23 2.13 16.49 1.86 24.7-.25 7.95-2.24 15.85-3.47 23.77l-1.64-.1a18.41 18.41 0 0 1 -.31-2.84c.68-16.28-1.27-32.33-3.78-48.38-1.46-9.29-2.8-18.73-2.72-28.09.06-6.12 2.75-12.21 4.26-18.32z"/><path d="m301.16 53.39c.1 1.13-.22 2.6.38 3.3 1.54 1.84 3.77 4.9 5.21 4.64a10.16 10.16 0 0 0 6.25-4.93c1.53-3 1.68-6.67 3.45-9.94.54 1.47.75 3.21 1.69 4.35 1.35 1.62 3.95 4.29 4.74 3.9a10.45 10.45 0 0 0 4.88-5.35c1.08-3 1-6.43 2-9.66 2.29 7.28 3.05 14.64.14 21.83-1.39 3.43-4.74 4.61-8.35 3.86s-6.29.1-7.89 3.78c-.56 1.28-1.91 2.28-3 3.25-3.66 3.14-8.18 2.49-9.8-1.8-2.16-5.62-1.68-11.47.3-17.23z"/><path d="m96.29 195-10.74-7.51-5.34 10.21-10.06-8.05 5.6-10.18 10.88 7.17c1.81-3.14 3.57-6.19 5.32-9.24 10.36 4.37 10.71 5.69 4.34 17.6z"/><path d="m400.09 81.36-10-6.35-5.41 9-9.87-7.91 6-9.73 9.59 7.31 6.27-10 9.24 7z"/><path d="m484.77 167.12c2.48-2.75 4.55-5.14 6.72-7.43 2.33-2.47 4.83-5.08 8.47-2.39 2.26 1.68 1.72 7.39-1.31 9.76-2.36 1.84-5.49 2.75-8.35 3.88-2 .79-4.15 1.26-6.32 1.89-1-2.58-4.45-2.83-7.69.15-4.13 3.82-8 8.09-12.53 11.25-4.18 2.88-9.21 4.54-14.28 5.77 4.72-3.58 9.6-7 14.13-10.78a100.06 100.06 0 0 0 8.67-8.8c3.47-3.71 7.38-5.57 12.49-3.3zm14.59-3.46c-6.21-3.65-10.06-1.66-9.65 4.22z"/><path d="m35.32 93.53c2.24-6.67 4.08-12.21 6-17.73a9.56 9.56 0 0 1 1.75-3.49 4.88 4.88 0 0 1 3.23-1.56c.59 0 1.63 1.73 1.62 2.67a29.5 29.5 0 0 1 -1.92 10.71l-2.17-3.85-1.45-.28c-1.1 3.57-2.29 7.12-3.3 10.72s-1.81 7.24-3.88 10.72l-4.32-13.34c-2.85 1.14-5 2.49-7.2 2.63-.89 0-2.74-2.57-2.75-4a20.41 20.41 0 0 1 1.78-8.31c.29-.63 4.53-.59 5.44.46 2.08 2.38 3.29 5.55 4.72 8.47.82 1.7 1.4 3.5 2.45 6.18z"/><path d="m169.46 44 16.83-11.35-.6-.77h-14.86c.77-5.91 2.38-7.39 8.46-7.38h14.27c3.28 9.97-13.5 20.7-24.1 19.5z"/><path d="m507.94 46-3.52-4.32c-5.42 6.32-3.93 14.68-7.82 22.32-1.77-5.48-3.23-10-4.9-15.21-1.35 1.24-2.1 2-2.91 2.66-.51.42-1.26 1.16-1.63 1-1.55-.56-4.26-1.36-4.28-2.13-.09-3.45.59-6.91 1-10.37 1.61.29 3.89 0 4.7 1a59.4 59.4 0 0 1 5.56 8.66c.89 1.52 1.51 3.21 2.72 5.85 1.75-6.19 2.8-11.48 4.81-16.39 1-2.53 3.75-4.38 5.71-6.54a81.59 81.59 0 0 1 1.81 8.54c.14 1.41-.71 2.93-1.25 4.93z"/><path d="m79.09 85.74c4.36 5.9 3.73 12.28 1.14 18.59-1.53 3.73-5 4.75-8.74 3.9-3.42-.77-5.18-3-5.48-6.7-.72-8.78 3.48-18.68 11-25-1.76 4.64-3.63 8.95-5 13.42a17.52 17.52 0 0 0 -.58 7.27c.17 1.27 1.74 2.74 3 3.32a3.7 3.7 0 0 0 3.4-1.15c.64-.93.42-2.57.31-3.88-.26-3.24-.67-6.46-1-9.69z"/><path d="m418.83 167.09c3.81 5 4.25 15.62.19 19.93-1.62 1.73-5.46 3.45-7 2.66a10.17 10.17 0 0 1 -4.85-7.05c-.64-8.67 1.47-16.79 7.85-23.28a16.28 16.28 0 0 1 3.26-3c-1.46 3.81-3.21 7.53-4.28 11.43a46.31 46.31 0 0 0 -1.36 10.22 4.81 4.81 0 0 0 2 3.38 3.12 3.12 0 0 0 3.08-.5 7.47 7.47 0 0 0 1.13-4.39c-.29-3.08-1.05-6.13-1.61-9.19z"/><path d="m435.35 77.11c-2 5.34-3.85 9.74-5.22 14.3a28.66 28.66 0 0 0 -.84 7.81c0 2.71 1.59 3.78 4.26 3.47 3.32-.4 2.83-2.79 2.51-4.89a66.52 66.52 0 0 1 -1.26-9.6c5 4.6 5 17.88.23 21.48a8 8 0 0 1 -6.82.95c-1.77-.77-3.45-3.58-3.71-5.67-1.33-10.73 2.25-19.85 10.85-27.85z"/><path d="m313.75 37c-2.15-10.16-4.75-18.35-11.81-24.93-2.23-2.07-1.24-7.61-1.79-12.07 10.67 3.84 16.1 19.1 13.6 37z"/><path d="m208.85 54.14c.71 5.44-2.76 7.65-6.77 9.23-7 2.77-14.17 5.24-21.2 8-3.17 1.25-6.18 2.9-10.25 4.85 1.61-3.92 2.29-7.46 6.63-9 7.31-2.58 14.58-5.27 21.78-8.15 3.31-1.3 6.4-3.19 9.81-4.93z"/><path d="m541 68.49c0 4.85-1.91 7.78-5.81 9.31-6.45 2.52-13 4.73-19.4 7.41-4.9 2.07-9.58 4.66-14.08 6.88.59-4.72 3.34-8 8.74-9.71 7.36-2.35 14.57-5.27 21.69-8.31 2.93-1.26 5.5-3.43 8.86-5.58z"/><path d="m461.17 44.07c.34 3.73-1.53 6.44-5 7.92-6.23 2.66-12.62 4.92-18.81 7.65-5 2.22-9.87 4.89-14.74 7.32.67-3.64 1.88-7.32 6.86-9.08 7.29-2.58 14.45-5.58 21.58-8.62 3.45-1.47 6.7-3.42 10.11-5.19z"/><path d="m144.63 89.05-9.5-7.23 6.28-10c10.38 5.18 10.38 5.18 3.22 17.23z"/></svg>